<?xml version="1.0" standalone="no"?>
<!DOCTYPE svg PUBLIC "-//W3C//DTD SVG 20010904//EN"
 "http://www.w3.org/TR/2001/REC-SVG-20010904/DTD/svg10.dtd">
<svg version="1.0" xmlns="http://www.w3.org/2000/svg"
 width="512.000000pt" height="512.000000pt" viewBox="0 0 512.000000 512.000000"
 preserveAspectRatio="xMidYMid meet">
<metadata>
Created by potrace 1.11, written by Peter Selinger 2001-2013
</metadata>
<g transform="translate(0.000000,512.000000) scale(0.100000,-0.100000)"
fill="#000000" stroke="none">
<path d="M4360 5055 c-7 -8 -16 -15 -21 -15 -5 0 -34 -16 -65 -36 -111 -71
-317 -163 -425 -191 -88 -22 -127 -26 -254 -27 -139 -1 -273 7 -306 18 -8 3
-32 7 -54 10 -67 10 -104 16 -250 46 -77 16 -156 32 -175 35 -19 3 -46 7 -60
10 -14 3 -41 7 -60 10 -19 3 -49 8 -67 11 l-31 6 -36 -114 c-29 -93 -127 -446
-142 -510 -2 -10 -6 -28 -10 -40 -3 -13 -13 -63 -23 -113 -16 -79 -16 -95 -4
-135 69 -228 115 -404 149 -565 6 -30 42 -244 49 -295 22 -159 30 -290 30
-515 -1 -275 -7 -347 -51 -610 -18 -109 -75 -313 -125 -452 -28 -76 -192 -426
-276 -588 -78 -151 -250 -383 -378 -510 -124 -125 -273 -222 -412 -269 -316
-108 -493 -11 -493 270 0 115 61 340 138 505 40 88 111 214 144 259 143 192
261 316 380 400 217 153 407 197 606 138 51 -16 82 -21 82 -14 0 42 -155 209
-261 283 -296 202 -754 -57 -1099 -622 -123 -200 -234 -475 -266 -660 -3 -16
-10 -50 -14 -75 -16 -79 -5 -278 18 -342 72 -201 249 -307 513 -306 511 1
1089 470 1291 1048 37 107 131 430 172 595 49 198 122 583 141 745 3 25 7 52
10 60 2 8 7 49 10 90 4 41 9 83 10 92 2 9 6 48 10 85 3 37 8 88 10 113 8 80
18 234 19 285 l1 50 80 -2 c386 -8 574 -4 657 13 13 2 41 7 63 10 65 8 235 53
300 78 164 65 267 126 387 228 52 45 56 51 53 86 -2 23 0 31 5 22 4 -8 11 -48
15 -88 3 -41 8 -81 10 -90 6 -35 19 -178 31 -352 15 -222 9 -828 -11 -952 -2
-13 -6 -54 -10 -93 -4 -38 -9 -79 -11 -89 -2 -11 -6 -42 -9 -70 -3 -28 -8 -60
-10 -71 -3 -11 -7 -32 -9 -48 -3 -15 -7 -35 -10 -45 -3 -9 -7 -34 -11 -55 -18
-124 -43 -193 -147 -407 -151 -311 -173 -352 -241 -455 -225 -337 -437 -526
-693 -618 -127 -46 -256 -54 -339 -23 -62 24 -120 92 -135 159 -22 97 -21 163
6 310 10 55 52 183 88 270 175 422 524 779 846 863 92 24 206 21 308 -9 51
-15 82 -20 82 -13 0 34 -119 173 -211 246 -164 130 -359 135 -575 15 -427
-238 -841 -934 -860 -1445 -3 -105 -1 -137 16 -199 27 -96 39 -118 105 -189
217 -234 694 -193 1100 96 46 33 169 136 205 172 64 65 189 214 222 264 138
213 235 487 318 896 12 58 23 112 24 120 2 8 9 49 16 90 6 41 13 86 16 100 2
14 6 50 10 80 3 30 8 57 9 60 2 3 7 42 10 85 4 44 9 88 11 99 3 17 18 183 29
316 28 358 28 1229 0 1480 -5 49 -14 134 -20 205 -3 33 -8 71 -10 85 -2 14 -7
45 -10 70 -3 25 -17 113 -30 195 -14 83 -30 184 -36 225 -6 41 -13 86 -15 100
-3 14 -7 47 -11 73 -7 53 -15 64 -33 42z m-91 -981 c34 -170 34 -173 -2 -206
-53 -49 -189 -136 -278 -177 -221 -103 -470 -151 -779 -153 -133 -1 -400 11
-411 18 -4 2 -7 45 -8 96 -1 51 -4 138 -7 193 -3 55 -6 114 -7 130 l-2 30 65
-5 c104 -7 645 -5 755 3 235 18 485 101 595 198 l35 31 12 -30 c7 -16 21 -74
32 -128z"/>
</g>
</svg>
