<svg xmlns="http://www.w3.org/2000/svg" viewBox="0 0 137.6 141.64"><defs><style>.cls-1{fill:#bf3d00;}.cls-2{fill:none;stroke:#bf3d00;stroke-linecap:round;stroke-miterlimit:10;stroke-width:3.29px;}</style></defs><title>drum-icon</title><g id="Layer_2" data-name="Layer 2"><g id="Layer_1-2" data-name="Layer 1"><path class="cls-1" d="M113.67,48.6c-12.47-2.52-29-3.91-46.63-3.91S32.88,46.08,20.41,48.6C6.87,51.34,0,55,0,59.46v67.41a3.71,3.71,0,0,0,.06.67s0,0,0,.08a3.55,3.55,0,0,0,.17.64.14.14,0,0,0,0,.06c.94,2.66,4.52,5,10.71,7l.07,0,1.05.32.29.09.78.23c3.05.87,6.35,1.59,9.63,2.19h0l2.31.41.48.07,1.84.3,1.09.16,1.1.15,1.77.24.66.09,2.05.25h0c7.4.87,15.55,1.43,24.09,1.66l.58,0c1.11,0,2.23.05,3.36.06l.93,0,4,0,4,0,.93,0c1.13,0,2.25,0,3.36-.06l.58,0c8.54-.23,16.7-.79,24.09-1.66h0l2.06-.25.64-.09c.6-.07,1.2-.15,1.79-.24l1.08-.15,1.11-.17,1.82-.28.5-.09c.76-.12,1.53-.26,2.3-.4h0c3.27-.6,6.57-1.32,9.61-2.19l.8-.23.29-.09,1.05-.32.07,0c6.19-2,9.77-4.35,10.71-7a.14.14,0,0,0,0-.06,4.64,4.64,0,0,0,.17-.64s0-.05,0-.08a3.71,3.71,0,0,0,.06-.67V59.46c0-4.46-6.87-8.12-20.41-10.86M21,51.59c12.28-2.49,28.63-3.85,46-3.85s33.75,1.36,46,3.85c17.46,3.53,18,7.44,18,7.87s-.5,4.35-18,7.88c-12.28,2.48-28.63,3.85-46,3.85s-33.75-1.37-46-3.85c-17.46-3.53-18-7.44-18-7.88s.5-4.34,18-7.87m110,75.28c0,.44-.5,4.35-18,7.88-12.28,2.48-28.63,3.85-46,3.85s-33.75-1.37-46-3.85c-17.46-3.53-18-7.44-18-7.88v-8.45c3.23,2.35,9,4.38,17.36,6.06,12.47,2.52,29,3.91,46.63,3.91s34.16-1.39,46.63-3.91c8.33-1.68,14.13-3.71,17.36-6.06ZM3.05,77.51c3.23,2.35,9,4.38,17.36,6.07,3.77.76,7.92,1.41,12.35,2v37.84c-4.21-.53-8.16-1.16-11.75-1.88-17.46-3.53-18-7.45-18-7.88Zm65.51,10A290.22,290.22,0,0,0,98.28,85.9v37.84a286.23,286.23,0,0,1-29.72,1.6Zm-3,37.86a286.23,286.23,0,0,1-29.72-1.6V85.9a290.22,290.22,0,0,0,29.72,1.58ZM131,113.62c0,.43-.5,4.35-18,7.88-3.59.72-7.54,1.35-11.75,1.88V85.54c4.43-.55,8.58-1.2,12.35-2C122,81.89,127.8,79.86,131,77.51Zm0-40.91c0,.44-.5,4.35-18,7.88-12.28,2.48-28.63,3.85-46,3.85s-33.75-1.37-46-3.85c-17.46-3.53-18-7.44-18-7.88V64.26c3.23,2.35,9,4.38,17.36,6.06,12.47,2.53,29,3.92,46.63,3.92s34.16-1.39,46.63-3.92C122,68.64,127.8,66.61,131,64.26Z"/><line class="cls-2" x1="120.3" y1="1.64" x2="35.33" y2="57.43"/><path class="cls-1" d="M38.2,57.82a3.45,3.45,0,1,1-3.45-3.45,3.44,3.44,0,0,1,3.45,3.45"/><line class="cls-2" x1="135.95" y1="11.75" x2="74.51" y2="63.18"/><path class="cls-1" d="M77.38,63.56a3.45,3.45,0,1,1-3.45-3.45,3.46,3.46,0,0,1,3.45,3.45"/></g></g></svg>