<?xml version="1.0" encoding="utf-8"?>
<!-- Generator: Adobe Illustrator 16.0.0, SVG Export Plug-In . SVG Version: 6.00 Build 0)  -->
<!DOCTYPE svg PUBLIC "-//W3C//DTD SVG 1.1//EN" "http://www.w3.org/Graphics/SVG/1.1/DTD/svg11.dtd">
<svg version="1.1" id="Layer_2" xmlns="http://www.w3.org/2000/svg" xmlns:xlink="http://www.w3.org/1999/xlink" x="0px" y="0px"
	 width="261.833px" height="149.167px" viewBox="0 0 261.833 149.167" enable-background="new 0 0 261.833 149.167"
	 xml:space="preserve">
<g>
	<g id="g2166_1_">
		<path id="path2156_1_" fill="none" stroke="#005950" stroke-width="8" stroke-linejoin="round" d="M6.592,6.592v111.838h223.675
			V6.592H6.592z"/>
		<path id="path2158_1_" fill="#005950" fill-opacity="0.9608" d="M25.186,111.928c0,6.679-5.415,12.093-12.093,12.093
			S1,118.607,1,111.928s5.414-12.093,12.093-12.093S25.186,105.25,25.186,111.928z"/>
		<path id="path2160_1_" fill="#005950" fill-opacity="0.9608" d="M25.186,13.093c0,6.679-5.415,12.093-12.093,12.093
			S1,19.771,1,13.093S6.414,1,13.093,1S25.186,6.414,25.186,13.093z"/>
		<path id="path2162_1_" fill="#005950" fill-opacity="0.9608" d="M235.859,111.928c0,6.679-5.414,12.093-12.093,12.093
			s-12.093-5.415-12.093-12.093s5.415-12.093,12.093-12.093S235.859,105.25,235.859,111.928z"/>
		<path id="path2164_1_" fill="#005950" fill-opacity="0.9608" d="M235.859,13.093c0,6.679-5.414,12.093-12.093,12.093
			s-12.093-5.414-12.093-12.093S217.088,1,223.767,1S235.859,6.414,235.859,13.093z"/>
	</g>
	<path id="path2154_1_" opacity="0.96" fill="#005950" enable-background="new    " d="M118.428,23.367
		c-21.552,0-39.141,17.592-39.141,39.145c0,21.552,17.588,39.142,39.141,39.142c21.552,0,39.145-17.59,39.145-39.142
		S139.98,23.367,118.428,23.367z"/>
	<path id="path2152_1_" fill="none" stroke="#005950" stroke-width="11.1838" stroke-linejoin="round" d="M28.96,129.535v11.262
		h223.675V28.96l-15.035,0"/>
	<g>
		<path fill="#FFFFFF" d="M133.479,31.919l-2.449,11.497c-2.352-2.352-5.783-3.528-10.293-3.528c-4.51,0-8.163,1.619-10.957,4.856
			c-1.577,1.826-2.698,4.109-3.362,6.848h22.827l-1.328,6.433h-22.329c-0.028,0.637-0.042,1.453-0.042,2.449
			c0,0.969,0.027,1.979,0.083,3.03h21.125l-1.328,6.433h-18.926c0.691,2.961,1.757,5.285,3.196,6.973
			c2.767,3.265,6.364,4.897,10.791,4.897c5.313,0,9.546-1.632,12.7-4.897v12.7c-3.597,1.798-7.789,2.698-12.576,2.698
			c-8.08,0-14.72-2.767-19.922-8.301c-3.542-3.763-5.88-8.453-7.014-14.07h-6.143l1.328-6.433h4.067
			c-0.028-0.664-0.042-1.37-0.042-2.117c0-1.272,0.027-2.393,0.083-3.362h-5.437l1.328-6.433h4.939
			c1.162-5.506,3.472-10.113,6.931-13.821c5.229-5.589,12.105-8.384,20.627-8.384C126.009,29.387,130.048,30.231,133.479,31.919z"/>
	</g>
</g>
</svg>
