<svg xmlns="http://www.w3.org/2000/svg" viewBox="0 0 140 140"><defs><style>.cls-1{fill:#bf3d00;}</style></defs><title>guitar-icon</title><g id="Layer_2" data-name="Layer 2"><g id="Layer_1-2" data-name="Layer 1"><path class="cls-1" d="M139.5,98.21c-1.94-8.7-10.21-15.95-20.58-18C109.69,78.29,108,77,103.42,69c-5-9-9.63-12.59-16.36-13C82.8,55.81,78,58,72.35,62.62,57.69,48.44,36.44,27.87,32.58,24h0l-.46-.47a7.82,7.82,0,0,1-2-3.79,7.45,7.45,0,0,0-2-3.74C26.37,14.3,16.53,4,13.56.82A2.62,2.62,0,0,0,10,.63,11.81,11.81,0,0,1,5.62,3,3.92,3.92,0,0,0,3,5.62,12,12,0,0,1,.63,10a2.62,2.62,0,0,0,.19,3.61C3,15.67,14.23,26.29,16,28.13a7.45,7.45,0,0,0,3.74,2,7.86,7.86,0,0,1,3.79,2l.47.46c3.88,3.86,24.45,25.11,38.63,39.77C58,78,55.81,82.82,56,87.06c.36,6.73,4,11.32,13,16.36,8.06,4.53,9.31,6.27,11.18,15.5,2.1,10.37,9.35,18.64,18,20.58a20.37,20.37,0,0,0,4.48.5c7.75,0,16-4.32,24.5-12.82,10.19-10.2,14.34-20,12.32-29M98.9,136.4c-7.49-1.67-13.77-9-15.62-18.11-2.06-10.17-3.84-12.64-12.74-17.64-8-4.48-11-8.21-11.33-13.76-.17-3.32,1.72-7.43,5.64-12.24L74.82,85a10.69,10.69,0,0,0-.06,1.13A11.34,11.34,0,1,0,86.1,74.76a10.69,10.69,0,0,0-1.13.06l-10.31-10c4.6-3.75,8.56-5.65,11.81-5.65h.42c5.55.29,9.28,3.36,13.76,11.33,5,8.9,7.47,10.68,17.64,12.74,9.16,1.85,16.44,8.13,18.11,15.62,1.76,7.89-2.1,16.65-11.47,26s-18.14,13.23-26,11.47M6.52,6a14.94,14.94,0,0,0,5.09-2.64C15,6.9,24.18,16.61,25.92,18.28a4.5,4.5,0,0,1,1.13,2.31,10.91,10.91,0,0,0,2.2,4.48l-4.18,4.18a10.94,10.94,0,0,0-4.47-2.2,4.57,4.57,0,0,1-2.32-1.13c-1.72-1.79-12-11.56-14.9-14.31A14.94,14.94,0,0,0,6,6.52a.74.74,0,0,1,.5-.5M31.46,27.36c7.85,7.75,40,38.78,49.94,48.43a11.53,11.53,0,0,0-3.32,2.29,11.67,11.67,0,0,0-2.29,3.32c-9.65-10-40.68-42.09-48.43-49.94ZM86.1,77.94a8.16,8.16,0,1,1-5.77,2.39,8.11,8.11,0,0,1,5.77-2.39"/><path class="cls-1" d="M118.44,101.21l-4.2-4.2A1.59,1.59,0,0,0,112,97L97,112a1.64,1.64,0,0,0-.46,1.13,1.62,1.62,0,0,0,.46,1.12l4.2,4.2a1.58,1.58,0,0,0,2.25,0l15-15a1.59,1.59,0,0,0,0-2.25m-2.81,1.89-12.79,12.64a.8.8,0,0,1-1.12,0l-2.08-2.08a.83.83,0,0,1-.23-.56.79.79,0,0,1,.23-.55l12.8-12.65a.8.8,0,0,1,1.11,0l2.08,2.08a.79.79,0,0,1,0,1.12"/><path class="cls-1" d="M120.52,109.11l-12.28,12.28a1.45,1.45,0,0,1-2-2l12.28-12.28a1.44,1.44,0,0,1,2,0,1.46,1.46,0,0,1,0,2"/></g></g></svg>