<svg xmlns="http://www.w3.org/2000/svg" viewBox="0 0 129.32 129.32"><defs><style>.cls-1{fill:#d14200;}</style></defs><title>micrphone-icon</title><g id="Layer_2" data-name="Layer 2"><g id="Layer_1-2" data-name="Layer 1"><path class="cls-1" d="M83.06,34.74,57.13,8.81a30.16,30.16,0,0,0-42.61,0L8.81,14.52a30.16,30.16,0,0,0,0,42.61L34.74,83.06a30.18,30.18,0,0,0,37.64,4l16.67,16.68-.4.4a17.19,17.19,0,0,0,0,24.28,3,3,0,0,0,4.22,0l35.56-35.56a3,3,0,0,0,0-4.22,17.18,17.18,0,0,0-24.28,0l-.4.39L87.08,72.38a30.18,30.18,0,0,0-4-37.64M46.6,85.61,57.86,74.35a3.11,3.11,0,0,0-4.4-4.4L41.07,82.34h0a23.58,23.58,0,0,1-2.4-2.1L32.9,74.49,45.45,61.94a3.11,3.11,0,1,0-4.4-4.4L28.5,70.09l-8-8L33,49.52a3.11,3.11,0,0,0-4.4-4.4L16.08,57.67l-4.46-4.46a25,25,0,0,1-3.19-3.9l12.19-12.2a3.11,3.11,0,1,0-4.4-4.4L5.55,43.38a25.22,25.22,0,0,1,6.07-25.81l6-6A25.22,25.22,0,0,1,43.38,5.55L32.48,16.46a3.11,3.11,0,0,0,4.4,4.4L49.27,8.46l0,0a24.58,24.58,0,0,1,3.91,3.19l4.46,4.46L44.89,28.87a3.11,3.11,0,0,0,4.4,4.4L62.08,20.48l8,8L57.3,41.28a3.11,3.11,0,1,0,4.4,4.4L74.49,32.9l5.76,5.76a26.49,26.49,0,0,1,2.12,2.41l-.26.23L69.72,53.7a3.11,3.11,0,1,0,4.4,4.4L85.61,46.6a25.25,25.25,0,0,1-5.36,27.71l-6,5.94a25.23,25.23,0,0,1-27.7,5.36m78,5.13L90.85,124.49c-3.83-5.85-4-12.78,0-16.77L93.57,105l11.5-11.51,2.75-2.75c4-4,10.92-3.79,16.78,0M85,75.4l16.19,16.19L92,100.82,75.8,84.63l.41-.42,8.4-8.4Z"/></g></g></svg>