<svg xmlns="http://www.w3.org/2000/svg" viewBox="0 0 153.36 76.2"><defs><style>.cls-1{fill:#005952;}</style></defs><title>music-school-logo-dark-green_1</title><g id="Layer_2" data-name="Layer 2"><g id="outlined_text" data-name="outlined text"><path class="cls-1" d="M27.89,17.6a2.91,2.91,0,0,0-1.71.86A20.66,20.66,0,0,0,24,20.66c-.78.9-1.58,1.89-2.42,3s-1.64,2.16-2.42,3.24l-2.18,3c-.67.94-1.25,1.69-1.71,2.25a4.41,4.41,0,0,1-2.69-3.08,27.37,27.37,0,0,1,.62-2.83,26.74,26.74,0,0,1,1-3.05,30.88,30.88,0,0,1,1.59-3.32,37.33,37.33,0,0,1,2.31-3.67,3.34,3.34,0,0,0-1.81.91,22.22,22.22,0,0,0-2.46,2.33c-.88.95-1.79,2-2.73,3.22S9.31,25,8.49,26.15c-1.09,1.53-2,2.86-2.71,4a8.09,8.09,0,0,1-1.56,2,4.71,4.71,0,0,1-1.58-1.81A8.59,8.59,0,0,1,2,28.23a20.05,20.05,0,0,1,.33-2.64,26.28,26.28,0,0,1,.81-3.26A42.67,42.67,0,0,1,5.74,16q1.6-3.16,3.1-5.81a7.75,7.75,0,0,1,2.22.84,10.37,10.37,0,0,1,2.09,1.67,13.23,13.23,0,0,1-1.36,2.88L9.85,18.72C9.18,19.84,8.56,21,8,22.15a12.35,12.35,0,0,0-1.1,3.57c.82-1.18,1.79-2.52,2.92-4s2.29-3,3.48-4.31a28.86,28.86,0,0,1,3.54-3.43A5.3,5.3,0,0,1,20,12.52a4.44,4.44,0,0,1,1.14.17,7.84,7.84,0,0,1,1.15.44,9.06,9.06,0,0,1,.88.51,1.13,1.13,0,0,1,.39.37,11.55,11.55,0,0,1-1,2.4c-.55,1-1.12,2.08-1.74,3.19s-1.19,2.19-1.72,3.24a9,9,0,0,0-.92,2.48q2.16-2.94,4-5.34t3.56-4.12a19.26,19.26,0,0,1,3.1-2.64,5.11,5.11,0,0,1,2.71-.92,3.12,3.12,0,0,1,1.65.46,2.53,2.53,0,0,1,1.08,1.34A22.49,22.49,0,0,1,33,17.27c-.6,1.23-1.21,2.53-1.83,3.89s-1.16,2.71-1.65,4a10.57,10.57,0,0,0-.72,3.56A1.94,1.94,0,0,0,29.08,30a1,1,0,0,0,.75.29,2.54,2.54,0,0,0,1-.2,2,2,0,0,1,.68-.2.66.66,0,0,1,.31.44,2.93,2.93,0,0,1,0,.49,9.32,9.32,0,0,1-1.8,1.16,4.57,4.57,0,0,1-2.07.47,3.74,3.74,0,0,1-1.74-.36,3.06,3.06,0,0,1-1.12-1,3.73,3.73,0,0,1-.61-1.41A7.67,7.67,0,0,1,24.33,28a11.13,11.13,0,0,1,.4-3,22,22,0,0,1,.94-2.81c.37-.89.76-1.73,1.17-2.5S27.6,18.22,27.89,17.6Z"/><path class="cls-1" d="M48.09,30.12A3.41,3.41,0,0,1,47,28.36a7.22,7.22,0,0,1-.29-1.81A4.94,4.94,0,0,1,46.9,25c-.12,0-.38.23-.79.7s-.86,1-1.34,1.67l-1.43,1.89c-.47.61-.82,1.06-1.06,1.35a7,7,0,0,1-1.08,1,2.14,2.14,0,0,1-.81.39,4.91,4.91,0,0,1-1.47-.24A5.74,5.74,0,0,1,37.46,31,5,5,0,0,1,36.28,30a3.31,3.31,0,0,1-.69-1.42c0-.82,0-1.49.07-2A10.84,10.84,0,0,1,36,24.79,34.38,34.38,0,0,1,37.11,21a41.94,41.94,0,0,1,1.78-4.16A29.49,29.49,0,0,1,41.16,13a11.91,11.91,0,0,1,2.66-2.79,6.7,6.7,0,0,1,.93.07,5.3,5.3,0,0,1,1.07.24,7.54,7.54,0,0,1,1.06.42,2.74,2.74,0,0,1,.86.63,35.33,35.33,0,0,0-2,2.95,49.52,49.52,0,0,0-3.59,7.22,15,15,0,0,0-.53,1.41c-.2.61-.41,1.26-.61,1.93s-.38,1.34-.51,2a8.4,8.4,0,0,0-.2,1.54,1,1,0,0,0,.11.53,1,1,0,0,0,.2.26A5,5,0,0,0,42.28,28c.68-.79,1.61-2,2.82-3.65.29-.41.64-.88,1-1.41s.8-1.09,1.21-1.69.8-1.23,1.17-1.87a14,14,0,0,0,.9-1.94c.12-.35.27-.77.46-1.25a14.52,14.52,0,0,1,.71-1.52,17.47,17.47,0,0,1,1-1.61,9.2,9.2,0,0,1,1.3-1.51,6.13,6.13,0,0,1,1.23.13,11.59,11.59,0,0,1,1.26.33,6.25,6.25,0,0,1,1,.44,2.31,2.31,0,0,1,.66.5c-.53,1.3-1.11,2.57-1.76,3.83s-1.25,2.5-1.8,3.72a31.51,31.51,0,0,0-1.41,3.63,11.66,11.66,0,0,0-.57,3.52,7.6,7.6,0,0,0,.15,1.61A8,8,0,0,0,52,30.36c.12.31.23.57.33.77a1.26,1.26,0,0,1,.16.53s0,.07-.09.13a.12.12,0,0,1-.09,0,3,3,0,0,1-.79-.13,10,10,0,0,1-1.08-.37c-.4-.16-.79-.35-1.19-.55S48.44,30.35,48.09,30.12Z"/><path class="cls-1" d="M73,13.51a8.66,8.66,0,0,1-.29,1.74,9.28,9.28,0,0,1-.59,1.62,6.33,6.33,0,0,1-.75,1.21,1,1,0,0,1-.75.49q-.48,0-.57-.66a1.43,1.43,0,0,1,.11-.42l.24-.64c.09-.23.17-.47.24-.7a1.93,1.93,0,0,0,.11-.62,1.78,1.78,0,0,0-.28-1,.89.89,0,0,0-.77-.42c-1.18,0-2.07.73-2.69,2.19a17.43,17.43,0,0,0-.92,6.44,1.71,1.71,0,0,0,0,.52h3.08a.88.88,0,0,1,0,.35.75.75,0,0,1-.18.57l-1.61.37a8.08,8.08,0,0,0-.9.29c-.2.09-.33.18-.37.28a1.18,1.18,0,0,0-.07.42c0,.23,0,.47,0,.7s0,.52,0,.87a8.51,8.51,0,0,1-2,5.92,8.2,8.2,0,0,1-5.56,2.6,3.59,3.59,0,0,1-1.28-.36,5.71,5.71,0,0,1-1.25-.79,5.9,5.9,0,0,1-1-1.08,3.83,3.83,0,0,1-.61-1.21,7.58,7.58,0,0,1,.7-3.21,9,9,0,0,1,1.92-2.71A9.72,9.72,0,0,1,60,24.34a8.68,8.68,0,0,1,3.58-.73,10.44,10.44,0,0,0-.22-2.17c-.14-.71-.3-1.39-.46-2.05l-.46-1.95a8.11,8.11,0,0,1-.22-1.88,6.18,6.18,0,0,1,.48-2.36A9.32,9.32,0,0,1,63.93,11a8.09,8.09,0,0,1,1.85-1.7,6.62,6.62,0,0,1,2.2-1,4.45,4.45,0,0,1,1.3.77,18.9,18.9,0,0,1,1.6,1.43,14.77,14.77,0,0,1,1.41,1.61A4.15,4.15,0,0,1,73,13.51ZM58.52,33.57a7.32,7.32,0,0,0,2-1.27,9.67,9.67,0,0,0,1.65-1.9,10,10,0,0,0,1.12-2.24,7,7,0,0,0,.42-2.33,5.17,5.17,0,0,0-1.94.81,12.07,12.07,0,0,0-2,1.63,11,11,0,0,0-1.54,2A3.5,3.5,0,0,0,57.64,32,1.85,1.85,0,0,0,58.52,33.57Z"/><path class="cls-1" d="M73.12,28.14c0-.27,0-.6.07-1s.13-.93.24-1.59.27-1.46.46-2.39.44-2.07.73-3.39a14.14,14.14,0,0,1,.4-1.41,16.06,16.06,0,0,1,.81-2.05,14.45,14.45,0,0,1,1.23-2.09,4.64,4.64,0,0,1,1.74-1.49,7.93,7.93,0,0,1,2,.9,6.58,6.58,0,0,1,2.11,2,15.79,15.79,0,0,0-1.69,2.29A19.8,19.8,0,0,0,80,20.31c-.37.82-.71,1.67-1,2.55s-.66,1.8-1,2.77-.62,1.66-.88,2.53a9.66,9.66,0,0,0-.44,2.27c0,.52,0,.9,0,1.12s-.1.33-.24.33a2.62,2.62,0,0,1-.71-.22A4.68,4.68,0,0,1,74.55,31a5.27,5.27,0,0,1-1-1.17A3.13,3.13,0,0,1,73.12,28.14ZM81.53,9a3.48,3.48,0,0,1,.13-.79,1.71,1.71,0,0,1-.37-.66,2.26,2.26,0,0,1-.16-.79,7.66,7.66,0,0,1,.11-1.08c.08-.45.17-1,.29-1.47s.26-1.08.44-1.65.35-1.1.53-1.57a3.86,3.86,0,0,1,1.29.29,9.72,9.72,0,0,1,1.57.75,11,11,0,0,1,1.45,1,6,6,0,0,1,1,1c-.32.33-.75.77-1.28,1.35s-1,1.17-1.54,1.8-1,1.22-1.36,1.78a10.92,10.92,0,0,0-.79,1.19,1.78,1.78,0,0,1-.93-.46A1,1,0,0,1,81.53,9Z"/><path class="cls-1" d="M83.73,23.34a12,12,0,0,1,1-4.86,15,15,0,0,1,2.73-4.18,14,14,0,0,1,3.87-3,9.71,9.71,0,0,1,4.51-1.12,5,5,0,0,1,3.52,1.14,4.24,4.24,0,0,1,1.23,3.26,6.73,6.73,0,0,1-.28,2,7,7,0,0,1-.75,1.69,4.39,4.39,0,0,1-1.08,1.21,2,2,0,0,1-1.23.46,2.11,2.11,0,0,1-1.08-.33,2.81,2.81,0,0,1-.9-.85q3-2.68,3-4.89c0-.85-.34-1.27-1-1.27a4.45,4.45,0,0,0-2.2.83,12.78,12.78,0,0,0-2.56,2.2,15.12,15.12,0,0,0-2.88,4.69,14.85,14.85,0,0,0-1,5.39c0,2.37.53,3.8,1.59,4.27a7.81,7.81,0,0,0,1.54-.4,17.56,17.56,0,0,0,1.89-.81c.67-.34,1.37-.73,2.09-1.17s1.41-.91,2.09-1.41a1.09,1.09,0,0,1,.31.4,1.19,1.19,0,0,1,.13.48,16.07,16.07,0,0,1-1.72,1.81,19.16,19.16,0,0,1-2,1.6,17.08,17.08,0,0,1-2.05,1.23,6.36,6.36,0,0,1-1.74.64,6.4,6.4,0,0,1-2.72-.9,8.13,8.13,0,0,1-2.23-2,9.73,9.73,0,0,1-1.49-2.82A9.85,9.85,0,0,1,83.73,23.34Z"/><path class="cls-1" d="M25.43,46.72c.08.45.13.75.17.92a3.1,3.1,0,0,1,.06.68,5.3,5.3,0,0,1-.56,2.4,3.38,3.38,0,0,1-1.54,1.58,7.66,7.66,0,0,0-1.91-1.81,11.09,11.09,0,0,0-2.48-1.25,14.66,14.66,0,0,0-2.79-.72,17.11,17.11,0,0,0-2.81-.24A13.68,13.68,0,0,0,11,48.5a10.87,10.87,0,0,0-2.11.58A4.06,4.06,0,0,0,7.47,50a1.75,1.75,0,0,0-.53,1.25A3,3,0,0,0,8,53a13.9,13.9,0,0,0,2.3,1.72c.91.56,1.91,1.11,3,1.66s2.19,1.06,3.26,1.56c1.32.62,2.46,1.2,3.43,1.73a10.29,10.29,0,0,1,2.38,1.76,6.33,6.33,0,0,1,1.4,2.16,8.18,8.18,0,0,1,.47,2.93,10.4,10.4,0,0,1-.66,3.72,8.65,8.65,0,0,1-5,5,10.65,10.65,0,0,1-4,.72,18.78,18.78,0,0,1-4.72-.66A22.8,22.8,0,0,1,5.13,73.5a14.28,14.28,0,0,1-3.67-2.66A4.54,4.54,0,0,1,0,67.67a6,6,0,0,1,.45-2,8.38,8.38,0,0,1,1.62-2.54,6.13,6.13,0,0,0,1.26,2.77,11.16,11.16,0,0,0,3.46,3,16.65,16.65,0,0,0,4.42,1.82,17.66,17.66,0,0,0,4.27.56A9.78,9.78,0,0,0,19,70.71a6.57,6.57,0,0,0,2.15-1.31,4.61,4.61,0,0,0,1.09-1.54,4.73,4.73,0,0,0,.35-1.25,2.4,2.4,0,0,0-.72-1.5,8.58,8.58,0,0,0-1.83-1.4,28.53,28.53,0,0,0-2.68-1.39c-1-.47-2.06-.93-3.15-1.4q-2.46-1.1-4.24-2.05a16.78,16.78,0,0,1-2.92-1.95A6.5,6.5,0,0,1,5.4,54.83a5.66,5.66,0,0,1-.52-2.49A7.28,7.28,0,0,1,6.2,48.2a8.21,8.21,0,0,1,3.82-3,11.76,11.76,0,0,1,2.67-.78,16.75,16.75,0,0,1,2.79-.23,18.08,18.08,0,0,1,5,.7A38.93,38.93,0,0,1,25.43,46.72Z"/><path class="cls-1" d="M28.78,65.39A22.55,22.55,0,0,1,29.43,60a23.65,23.65,0,0,1,1.81-5A22.58,22.58,0,0,1,34,50.69a20.43,20.43,0,0,1,3.55-3.42A16,16,0,0,1,41.69,45a12.81,12.81,0,0,1,4.49-.8,6.8,6.8,0,0,1,4.19,1.13,3.73,3.73,0,0,1,1.5,3.16,6.46,6.46,0,0,1-.21,1.6A8.65,8.65,0,0,1,51,51.73a10.63,10.63,0,0,1-1,1.54,7.13,7.13,0,0,1-1.21,1.29,3.07,3.07,0,0,1-1.76-.91,3.45,3.45,0,0,1-.93-1.78,10.45,10.45,0,0,0,2.16-2.36,4.22,4.22,0,0,0,.8-2.24c0-1.15-.72-1.72-2.14-1.72a5.3,5.3,0,0,0-1.86.37,10.17,10.17,0,0,0-1.93,1,12,12,0,0,0-1.89,1.6,15.65,15.65,0,0,0-1.7,2.06A27.7,27.7,0,0,0,34.2,66.57a10.19,10.19,0,0,0,.9,4.64,3.55,3.55,0,0,0,2.38,2.07,13.7,13.7,0,0,0,4.25-2.14,49,49,0,0,0,5.62-4.57,1.56,1.56,0,0,1,.46.82c-.75,1-1.53,1.93-2.34,2.84s-1.6,1.73-2.39,2.48a28.06,28.06,0,0,1-2.34,2A13.23,13.23,0,0,1,38.61,76c-3.22,0-5.67-.9-7.33-2.69S28.78,68.88,28.78,65.39Z"/><path class="cls-1" d="M66,70.73a20.9,20.9,0,0,1,.55-4.22Q67,63.93,67.94,61c-1.72.13-3.44.31-5.17.53a36.12,36.12,0,0,1-4.5.32,72.49,72.49,0,0,0-2.79,7.56,60.78,60.78,0,0,0-1.62,6.74,5.6,5.6,0,0,1-2.46-1.23,10,10,0,0,1-1.79-2.2c.21-.42.45-1,.72-1.6s.6-1.44,1-2.36.81-2,1.29-3.24,1-2.67,1.66-4.31a3,3,0,0,1-1.72-1.52,3,3,0,0,1,.88-.33c.46-.12,1-.24,1.7-.37l.5-1.25c.55-1.4,1-2.59,1.35-3.55s.65-1.9.9-2.83.48-1.94.7-3.06.49-2.53.8-4.25a6.52,6.52,0,0,1,3,1.44,11.19,11.19,0,0,1,2.32,2.73,13.19,13.19,0,0,0-.86,1.41c-.33.62-.7,1.37-1.11,2.24s-.84,1.85-1.3,2.93-1,2.21-1.52,3.41q2.41-.33,4.89-.63a38.92,38.92,0,0,1,4.39-.29c.47-1.36.95-2.68,1.46-4s1-2.47,1.5-3.54,1-2,1.42-2.82a10.64,10.64,0,0,1,1.23-1.81,4.4,4.4,0,0,1,1,.3,11.52,11.52,0,0,1,1.3.6,8.91,8.91,0,0,1,1.21.76,2.58,2.58,0,0,1,.74.76,10,10,0,0,0-1.4,1.72,22.89,22.89,0,0,0-1.39,2.42c-.45.91-.9,1.89-1.34,3s-.86,2.17-1.25,3.31a2.28,2.28,0,0,1,.78,1.76,3,3,0,0,1-.31,1.36,2.8,2.8,0,0,0-.7-.09c-.24,0-.48,0-.74,0-.45,1.4-.85,2.79-1.21,4.16s-.67,2.68-.92,3.93-.44,2.39-.58,3.42a18.74,18.74,0,0,0-.22,2.61c0,.26,0,.46,0,.62a1.78,1.78,0,0,0,.06.39,2.47,2.47,0,0,1-1.25-.25,2.06,2.06,0,0,1-.58-.55,6.08,6.08,0,0,1-.35-.59,1.13,1.13,0,0,0-.51-.45,1.22,1.22,0,0,1-.51-.54,5.13,5.13,0,0,1-.39-1,8.61,8.61,0,0,1-.23-1.1A5.49,5.49,0,0,1,66,70.73Z"/><path class="cls-1" d="M152.38,70.55a6.46,6.46,0,0,1,1,3.23,3.24,3.24,0,0,1-.06.64c0,.19-.09.39-.14.6a8.79,8.79,0,0,0-1.38-.1h-3.39a18.64,18.64,0,0,0-2.13.13q-1.17.12-2.61.33c-1,.13-2.08.31-3.36.54a4.8,4.8,0,0,1-1.79-1.23,12,12,0,0,1-1.68-2.21l1-2.12c.39-.85.84-1.87,1.36-3.08s1.1-2.63,1.74-4.25,1.32-3.51,2-5.64c.47-1.4.88-2.64,1.21-3.7s.65-2.1.92-3.11.54-2,.8-3.13.55-2.36.86-3.79a6.83,6.83,0,0,1,2.71,1.15,9.42,9.42,0,0,1,2.2,2.4,16.21,16.21,0,0,0-.82,1.64c-.34.75-.73,1.67-1.19,2.75s-.95,2.29-1.5,3.66-1.12,2.82-1.71,4.38-1.13,3-1.68,4.33-1,2.57-1.46,3.66-.78,2-1,2.81a6.16,6.16,0,0,0-.39,1.75c.42,0,.8,0,1.13,0A10.55,10.55,0,0,0,144,72l1.19-.24c.43-.09.94-.21,1.54-.37s1-.24,1.44-.33.88-.17,1.31-.23.87-.12,1.32-.16Z"/><path class="cls-1" d="M103.72,65.39c6.64-11.36,12.15-43.76,5.54-63.18-.86,3.22-2.64,10.08-3.5,13.3a87.59,87.59,0,0,0,18.8.71,19.52,19.52,0,0,0,7.28-1.85c.42-.26.88-.47,1.27-.76,1.63-1.22.88-1.09,1.36,0a30.58,30.58,0,0,1,.82,4.43c2.09,13,2.51,28.07-1.95,40.58-1,2.82-2,6.8-2.75,9,6.85-8.1,8.59-28.12,8.51-42.15a112.75,112.75,0,0,0-.72-13.5c-.22-1.78-.49-3.57-.8-5.34-.22-1.19-.8-5.39-1.05-6.56A34,34,0,0,1,132,2.62c-7.36,3.91-15,.55-22.78-.41-.24,0-3.78,12.49-3.5,13.3,4.4,13,5.63,27.82-.28,40.41C104.22,58.61,104.85,63.44,103.72,65.39Z"/><path class="cls-1" d="M99.55,45.78a10.17,10.17,0,0,1,1.39,1.09c.46.42.89.85,1.27,1.27a8.48,8.48,0,0,1,.94,1.21,1.63,1.63,0,0,1,.34.89,10,10,0,0,0-1.3-.46c-.43-.12-.84-.21-1.2-.28a8,8,0,0,0-3.68.22,13.72,13.72,0,0,0-3.76,1.75,20.57,20.57,0,0,0-3.55,3,25.47,25.47,0,0,0-3.09,3.87,27.82,27.82,0,0,0-2.38,4.44,21.85,21.85,0,0,0-1.43,4.7,8.26,8.26,0,0,0,.18,4.75,3.46,3.46,0,0,0,2.72,2,6.21,6.21,0,0,0,2.11,0,11.87,11.87,0,0,0,2.44-.63,14.92,14.92,0,0,0,2.54-1.2,16.06,16.06,0,0,0,2.42-1.71,21.24,21.24,0,0,0,3.17-3.3A47.42,47.42,0,0,0,101.85,63c1.13-1.88,3.09-6.4,3.91-7.81s1.76.13,1.55,1.25a22.78,22.78,0,0,1-1.64,5.3,26.51,26.51,0,0,1-2.73,4.72,27.11,27.11,0,0,1-3.56,4,24.55,24.55,0,0,1-4.06,3,19.09,19.09,0,0,1-5.62,2.31,13.3,13.3,0,0,1-5.37.19,6.89,6.89,0,0,1-5.1-3.31q-1.49-2.65-.67-7.14a27.16,27.16,0,0,1,1.46-5,36.26,36.26,0,0,1,2.47-5,33.93,33.93,0,0,1,3.2-4.51,24.92,24.92,0,0,1,3.69-3.6,14.37,14.37,0,0,1,4-2.22,7.41,7.41,0,0,1,4-.37,6.33,6.33,0,0,1,1.16.31A5,5,0,0,1,99.55,45.78Z"/><path class="cls-1" d="M128,45.78a10.82,10.82,0,0,1,1.39,1.09c.46.42.89.85,1.27,1.27a9.28,9.28,0,0,1,.94,1.21,1.72,1.72,0,0,1,.34.89,10.59,10.59,0,0,0-1.3-.46c-.44-.12-.84-.21-1.21-.28a8,8,0,0,0-3.68.22A13.8,13.8,0,0,0,122,51.47a20.63,20.63,0,0,0-3.56,3,26.77,26.77,0,0,0-3.09,3.87A28.64,28.64,0,0,0,113,62.75a22.42,22.42,0,0,0-1.43,4.7,8.33,8.33,0,0,0,.19,4.75,3.46,3.46,0,0,0,2.72,2,6.21,6.21,0,0,0,2.11,0,12,12,0,0,0,2.44-.63,14.84,14.84,0,0,0,2.53-1.2,16.67,16.67,0,0,0,2.43-1.71,21.24,21.24,0,0,0,3.17-3.3A49.36,49.36,0,0,0,130.28,63c1.12-1.88,3.09-6.4,3.9-7.81s1.77.13,1.56,1.25a23.26,23.26,0,0,1-1.64,5.3,26,26,0,0,1-2.74,4.72,27,27,0,0,1-3.55,4,24.55,24.55,0,0,1-4.06,3,19.15,19.15,0,0,1-5.63,2.31,13.25,13.25,0,0,1-5.36.19,6.92,6.92,0,0,1-5.11-3.31Q106.17,70,107,65.56a26.4,26.4,0,0,1,1.46-5,35.1,35.1,0,0,1,2.46-5,34,34,0,0,1,3.21-4.51,24.92,24.92,0,0,1,3.69-3.6,14.32,14.32,0,0,1,3.94-2.22,7.44,7.44,0,0,1,4-.37,6.55,6.55,0,0,1,1.16.31A5.49,5.49,0,0,1,128,45.78Z"/><path class="cls-1" d="M110.87,27.92c8.49.8,18.09,1,24.69-5.33.27-.26,0-2.11,0-2.5,0-.59,0-1.18,0-1.77a3.66,3.66,0,0,1,0-.73c-6.6,6.3-16.2,6.13-24.69,5.33.12,0-.19,5,0,5Z"/></g></g></svg>