<svg xmlns="http://www.w3.org/2000/svg" viewBox="0 0 118.91 140"><defs><style>.cls-1{fill:#bf3d00;}</style></defs><title>piano-icon</title><g id="Layer_2" data-name="Layer 2"><g id="Layer_1-2" data-name="Layer 1"><path class="cls-1" d="M96.37,48.14h-9a8.86,8.86,0,0,1-8.85-8.86A39.29,39.29,0,0,0,0,39.28v99.13A1.59,1.59,0,0,0,1.59,140H117.32a1.59,1.59,0,0,0,1.59-1.59V70.68A22.56,22.56,0,0,0,96.37,48.14m-57.09-45A36.15,36.15,0,0,1,75.39,39.29a12,12,0,0,0,12,12h9a19.38,19.38,0,0,1,19.36,19.36V99.56H3.18V39.28a36.15,36.15,0,0,1,36.1-36.1M3.18,102.74H8v17a1.59,1.59,0,0,0,1.59,1.59h1.08v15.45H3.18Zm102.39,0h2.17v15.45h-2.17Zm-10.49,0h2.17v15.45H95.08Zm-8.32,15.45H84.59V102.74h2.17ZM63.61,102.74h2.18v15.45H63.61Zm-10.48,0H55.3v15.45H53.13Zm-21,0h2.17v15.45H32.15Zm-10.49,0h2.17v15.45H21.66Zm-10.49,0h2.17v15.45H11.17Zm2.67,18.63h1.09a1.59,1.59,0,0,0,1.59-1.59v-17h2v17a1.59,1.59,0,0,0,1.59,1.59h1.08v15.45H13.84Zm10.49,0h1.09A1.59,1.59,0,0,0,27,119.78v-17h2v17a1.59,1.59,0,0,0,1.59,1.59h1.08v15.45H24.33Zm10.49,0h1.09a1.59,1.59,0,0,0,1.59-1.59v-17h4.63v34.08H34.82Zm10.49-18.63h4.63v17a1.6,1.6,0,0,0,1.6,1.59h1.08v15.45H45.31ZM55.8,121.37h1.09a1.59,1.59,0,0,0,1.59-1.59v-17h2v17A1.59,1.59,0,0,0,62,121.37h1.09v15.45H55.8Zm10.49,0h1.08A1.59,1.59,0,0,0,69,119.78v-17H73.6v34.08H66.29Zm10.49-18.63h4.63v17A1.59,1.59,0,0,0,83,121.37h1.09v15.45H76.78Zm10.49,18.63h1.08a1.59,1.59,0,0,0,1.59-1.59v-17h2v17a1.59,1.59,0,0,0,1.59,1.59h1.09v15.45H87.27Zm10.49,0h1.08a1.59,1.59,0,0,0,1.59-1.59v-17h2v17a1.59,1.59,0,0,0,1.59,1.59h1.09v15.45H97.76Zm18,15.45h-7.48V121.37h1.08a1.59,1.59,0,0,0,1.59-1.59v-17h4.81Z"/></g></g></svg>