<svg xmlns="http://www.w3.org/2000/svg" viewBox="0 0 140 140"><defs><style>.cls-1{fill:#d14200;}</style></defs><title>trumpet-icon</title><g id="Layer_2" data-name="Layer 2"><g id="Layer_1-2" data-name="Layer 1"><path class="cls-1" d="M140,129.53a1.62,1.62,0,0,0-.91-1.17l-6.27-2.88L106.19,98.87l-4.4-4.66,1.89-1.89a1.6,1.6,0,0,0,1,.4A1.59,1.59,0,0,0,105.85,90l-1-1.06L100,84.12l-1-1.05a1.59,1.59,0,0,0-2.31,2.17l-1.69,1.68L92.4,84.26,94,82.65a1.59,1.59,0,0,0,2.17-2.32l-1.06-1-4.83-4.84-1.05-1a1.59,1.59,0,0,0-2.32,2.17L85.52,77l-2.86-3L84,72.62a1.59,1.59,0,0,0,2.17-.06,1.59,1.59,0,0,0,0-2.25l-1.05-1-4.83-4.84-1.06-1.05a1.59,1.59,0,0,0-2.31,2.17l-1.12,1.12L50.85,40.25a45.5,45.5,0,0,1-12-38.42A1.59,1.59,0,0,0,36.19.47L.47,36.19a1.59,1.59,0,0,0,1.36,2.7,46.57,46.57,0,0,1,7-.53A45.64,45.64,0,0,1,40.25,50.85l9.08,8.58a18.52,18.52,0,0,0-4.94,30l4.3,4.3-3.14,3.14a1.58,1.58,0,0,0,0,2.24L50.39,104a1.58,1.58,0,0,0,2.25,0l3.13-3.14,2.94,2.94-3.13,3.14a1.58,1.58,0,0,0-.47,1.12,1.61,1.61,0,0,0,.47,1.13L60.41,114a1.58,1.58,0,0,0,2.25,0l3.14-3.13,2.59,2.58-3.14,3.14a1.58,1.58,0,0,0,0,2.25l4.84,4.84a1.59,1.59,0,0,0,2.24,0l3.14-3.14,4.3,4.3a18.88,18.88,0,0,0,13.4,5.56h0a18.29,18.29,0,0,0,12.77-5.14,18.47,18.47,0,0,0,4.66-7.33l14.88,14.88,2.88,6.27a1.62,1.62,0,0,0,1.17.91l.28,0a1.58,1.58,0,0,0,1.12-.47l8.6-8.6a1.58,1.58,0,0,0,.45-1.4m-46.81-2.32h0A15.75,15.75,0,0,1,82,122.59L46.64,87.21a15.54,15.54,0,0,1-.3-21.8,15.27,15.27,0,0,1,5.51-3.6L55.23,65a11.19,11.19,0,0,0-6,3.13,11.37,11.37,0,0,0,0,16.05L85,120a11.35,11.35,0,1,0,16-16.08L60.46,65.57a1,1,0,0,0-.24-.23L42.43,48.54A48.78,48.78,0,0,0,8.81,35.18c-1,0-1.94,0-2.92.08L35.26,5.9A48.62,48.62,0,0,0,48.54,42.43l55.37,58.66a15.27,15.27,0,0,1-10.74,26.12m-20-8.93-2,2-2.59-2.58,2-2ZM59,108l2-2,2.59,2.59-2,2Zm-5.42-9.44-2,2L48.92,98l2-2Zm45.31,7.57a8.17,8.17,0,0,1-11.55,11.55l-4.5-4.5,11.42-11.42ZM80.54,111,78,108.37,89.23,97.09l2.67,2.52Zm-4.83-4.84-2.59-2.59L84.26,92.4l2.66,2.51Zm-4.84-4.83L68.28,98.7l11-11,2.66,2.51ZM66,96.45,63.1,93.51,73.94,82.66l3,2.86Zm-5.18-5.19-2.59-2.58L69,78l2.66,2.51ZM56,86.43l-4.5-4.5a8.17,8.17,0,0,1,7-13.85l8.16,7.7ZM81.73,70.38l-1.25,1.25L78,69l1.17-1.18Zm10,10-1.54,1.54L87.7,79.28l1.46-1.46Zm9.68,9.68L99.61,91.9,97.1,89.23l1.74-1.74Zm9.83,18.35,18.37,18.37-2.83,2.83-15.36-15.37a17.32,17.32,0,0,0,.14-2.17,18.53,18.53,0,0,0-.32-3.66m17.45,23.79,3.51-3.51,3.45,1.59-5.37,5.37Z"/></g></g></svg>