<svg xmlns="http://www.w3.org/2000/svg" viewBox="0 0 141.39 133.07"><defs><style>.cls-1{fill:#d14200;}.cls-2,.cls-3{fill:none;stroke:#bf3d00;stroke-linecap:round;stroke-miterlimit:10;}.cls-2{stroke-width:2.79px;}.cls-3{stroke-width:1.67px;}</style></defs><title>violin-icon</title><g id="Layer_2" data-name="Layer 2"><g id="Layer_1-2" data-name="Layer 1"><path class="cls-1" d="M135,89.65c-3.24-7.54-10.73-12-16.44-14.43a12.7,12.7,0,0,1-6.23-5.7,1.56,1.56,0,0,0-2.47-.36,5,5,0,0,1-4.24,1.44l-.74-.12a17.18,17.18,0,0,1-10.79-6.1,5.63,5.63,0,0,1-.22-6.68A1.52,1.52,0,0,0,94,56.36a1.57,1.57,0,0,0-1-1A8.67,8.67,0,0,1,88.16,51c-2.12-4.28-3.89-7.15-5.29-8.55a14.72,14.72,0,0,0-10.79-4.37c-5.76,0-11.71,2.73-16.11,5.68L32.66,21.37l-.4-.41a6.87,6.87,0,0,1-1.75-3.31A12.26,12.26,0,0,0,30,16l1.46-1.45.73.78a1.56,1.56,0,0,0,2.2.07,1.56,1.56,0,0,0,.06-2.2L30.74,9.32a1.55,1.55,0,1,0-2.26,2.13l.8.85L28,13.56c-1.25-1.26-3.6-3.71-6-6.18L23.39,6l.74.79A1.55,1.55,0,0,0,26.39,4.7L22.72.81a1.55,1.55,0,1,0-2.26,2.12l.8.85L19.91,5.14,15.76.77a2.48,2.48,0,0,0-3.4-.18,10.53,10.53,0,0,1-3.8,2.06A3.59,3.59,0,0,0,6.11,5.1,10.63,10.63,0,0,1,4.06,8.9a2.47,2.47,0,0,0,.17,3.4l.49.47L3.46,14l-.85-.8A1.55,1.55,0,1,0,.49,15.48l3.89,3.66a1.52,1.52,0,0,0,1.06.43,1.55,1.55,0,0,0,1.07-2.68l-.79-.74L7,14.9c2.21,2.1,4.38,4.18,6.21,5.93L12,22l-.85-.81A1.55,1.55,0,1,0,9,23.49l3.89,3.67a1.57,1.57,0,0,0,1.07.42,1.54,1.54,0,0,0,1.13-.49A1.56,1.56,0,0,0,15,24.9l-.78-.74L15.42,23c1.12,1.09,2,1.9,2.3,2.27a6.72,6.72,0,0,0,3.39,1.8,6.87,6.87,0,0,1,3.31,1.75l.41.4L47.25,52.51c-5,7.4-9.15,19.05-1.3,26.9,1.39,1.4,4.26,3.17,8.54,5.29a8.67,8.67,0,0,1,4.36,4.91,1.59,1.59,0,0,0,1,1,1.55,1.55,0,0,0,1.34-.18,6,6,0,0,1,3.26-1,5.38,5.38,0,0,1,3.42,1.2A17.24,17.24,0,0,1,74,101.4l.11.74a5,5,0,0,1-1.44,4.24,1.56,1.56,0,0,0-.44,1.33,1.54,1.54,0,0,0,.81,1.14,12.69,12.69,0,0,1,5.69,6.23c2.42,5.71,6.89,13.2,14.43,16.44a18.12,18.12,0,0,0,7.31,1.55h0c7.14,0,14.78-4.17,23.35-12.75,11.48-11.48,15.15-21.51,11.2-30.67M100.42,130a15.17,15.17,0,0,1-6.09-1.3c-6.94-3-11-10.55-12.79-14.8a15.85,15.85,0,0,0-5.53-6.8,8.08,8.08,0,0,0,1.12-5.4l-.12-.74A20.26,20.26,0,0,0,69.8,88.21a8.5,8.5,0,0,0-5.38-1.91,9,9,0,0,0-3.36.66,11.74,11.74,0,0,0-5.2-5c-3.86-1.91-6.6-3.58-7.72-4.7-6.33-6.33-2.71-16.07,1.34-22.39L78.69,85.2a1.54,1.54,0,0,0,1.11.47h0a1.56,1.56,0,0,0,1.1-.45l7.77-7.77a1.57,1.57,0,0,0,0-2.22L58.27,46c3.9-2.51,9-4.79,13.81-4.79a11.73,11.73,0,0,1,8.6,3.47c1.12,1.12,2.79,3.86,4.7,7.72a11.74,11.74,0,0,0,5,5.2,8.61,8.61,0,0,0,1.25,8.74,20.26,20.26,0,0,0,12.72,7.21l.74.12a8.11,8.11,0,0,0,5.4-1.13,15.8,15.8,0,0,0,6.8,5.54c4.25,1.8,11.82,5.85,14.81,12.79,4.5,10.47-3.86,20.57-10.55,27.26-8,8-14.89,11.84-21.17,11.84M6.79,10.45A13.69,13.69,0,0,0,9.09,6a.48.48,0,0,1,.34-.35,13.44,13.44,0,0,0,4.48-2.29c3.6,3.79,11.16,11.73,12.65,13.16a4,4,0,0,1,1,2,9.89,9.89,0,0,0,1.9,3.94L25.89,26A9.94,9.94,0,0,0,22,24.06a3.87,3.87,0,0,1-2-1c-1.48-1.55-10-9.61-13.16-12.65M31.6,24.64,85.37,76.37l-5.54,5.54L28.1,28.14Z"/><path class="cls-1" d="M103.86,91.43a1.56,1.56,0,0,0-1.13-.57,1.54,1.54,0,0,0-1.17.45L94.77,98.1a1.55,1.55,0,0,0,.12,2.3l19.61,16a1.59,1.59,0,0,0,1,.35,1.52,1.52,0,0,0,1.1-.46l3.22-3.21a1.56,1.56,0,0,0,.1-2.08Zm-5.68,7.65,4.36-4.36,14.07,17.2-1.23,1.23Z"/><path class="cls-1" d="M97.53,82.59a1.56,1.56,0,0,0-2.19,0l-9.29,9.29a1.56,1.56,0,0,0,0,2.19,1.55,1.55,0,0,0,2.2,0l9.28-9.29a1.54,1.54,0,0,0,0-2.19"/><line class="cls-2" x1="28.89" y1="130.54" x2="140" y2="29.95"/><line class="cls-3" x1="36.35" y1="129.59" x2="138.54" y2="36.97"/></g></g></svg>